<svg width="20" height="20" viewBox="0 0 20 20" fill="none" xmlns="http://www.w3.org/2000/svg">
<path d="M9.88281 5.2793H10C10.6771 5.2793 11.263 5.52669 11.7578 6.02148C12.2526 6.51628 12.5 7.10221 12.5 7.7793V7.93555L9.88281 5.2793ZM6.28906 5.94336C5.97656 6.56836 5.82031 7.18034 5.82031 7.7793C5.82031 8.92513 6.22396 9.91471 7.03125 10.748C7.86458 11.5553 8.85417 11.959 10 11.959C10.599 11.959 11.2109 11.8027 11.8359 11.4902L10.5469 10.2012C10.3385 10.2533 10.1562 10.2793 10 10.2793C9.32292 10.2793 8.73698 10.0319 8.24219 9.53711C7.7474 9.04232 7.5 8.45638 7.5 7.7793C7.5 7.62305 7.52604 7.44076 7.57812 7.23242L6.28906 5.94336ZM1.67969 1.33398L2.73438 0.279297L17.5 15.0449L16.4453 16.0996C16.3151 15.9694 15.8984 15.5658 15.1953 14.8887C14.5182 14.2116 13.9974 13.6908 13.6328 13.3262C12.513 13.7949 11.3021 14.0293 10 14.0293C7.94271 14.0293 6.08073 13.4564 4.41406 12.3105C2.7474 11.1647 1.54948 9.6543 0.820312 7.7793C1.10677 7.10221 1.54948 6.36003 2.14844 5.55273C2.77344 4.7194 3.3724 4.08138 3.94531 3.63867C3.63281 3.32617 3.1901 2.88346 2.61719 2.31055C2.07031 1.73763 1.75781 1.41211 1.67969 1.33398ZM10 3.59961C9.47917 3.59961 8.97135 3.70378 8.47656 3.91211L6.67969 2.11523C7.69531 1.72461 8.80208 1.5293 10 1.5293C12.0573 1.5293 13.9062 2.10221 15.5469 3.24805C17.2135 4.39388 18.4115 5.9043 19.1406 7.7793C18.5156 9.31576 17.5651 10.6309 16.2891 11.7246L13.8672 9.30273C14.0755 8.80794 14.1797 8.30013 14.1797 7.7793C14.1797 6.63346 13.763 5.6569 12.9297 4.84961C12.1224 4.01628 11.1458 3.59961 10 3.59961Z" fill="white" fill-opacity="0.75"/>
</svg>
