<svg width="18" height="18" viewBox="0 0 18 18" fill="none" xmlns="http://www.w3.org/2000/svg" id="telegram">
<path d="M9 0.458984C10.1458 0.458984 11.2135 0.680339 12.2031 1.12305C13.2188 1.53971 14.1042 2.13867 14.8594 2.91992C15.6406 3.67513 16.2396 4.56055 16.6562 5.57617C17.099 6.56576 17.3203 7.63346 17.3203 8.7793C17.3203 9.92513 17.099 11.0059 16.6562 12.0215C16.2396 13.0111 15.6406 13.8965 14.8594 14.6777C14.1042 15.4329 13.2188 16.0319 12.2031 16.4746C11.2135 16.8913 10.1458 17.0996 9 17.0996C7.85417 17.0996 6.77344 16.8913 5.75781 16.4746C4.76823 16.0319 3.88281 15.4329 3.10156 14.6777C2.34635 13.8965 1.7474 13.0111 1.30469 12.0215C0.888021 11.0059 0.679688 9.92513 0.679688 8.7793C0.679688 7.63346 0.888021 6.56576 1.30469 5.57617C1.7474 4.56055 2.34635 3.67513 3.10156 2.91992C3.88281 2.13867 4.76823 1.53971 5.75781 1.12305C6.77344 0.680339 7.85417 0.458984 9 0.458984ZM12.8672 6.12305C12.8672 6.04492 12.8672 5.97982 12.8672 5.92773C12.8672 5.87565 12.8672 5.83659 12.8672 5.81055C12.8672 5.70638 12.8281 5.62826 12.75 5.57617C12.6979 5.52409 12.6328 5.49805 12.5547 5.49805C12.5026 5.47201 12.4635 5.45898 12.4375 5.45898C12.3333 5.45898 12.1771 5.49805 11.9688 5.57617C11.7865 5.62826 11.487 5.73242 11.0703 5.88867C10.6797 6.04492 10.0938 6.2793 9.3125 6.5918C8.92188 6.77409 8.3099 7.04753 7.47656 7.41211C6.66927 7.75065 5.66667 8.18034 4.46875 8.70117C4.07812 8.85742 3.86979 9.01367 3.84375 9.16992C3.81771 9.30013 3.89583 9.4043 4.07812 9.48242C4.26042 9.53451 4.48177 9.61263 4.74219 9.7168C4.95052 9.76888 5.17188 9.83398 5.40625 9.91211C5.66667 9.96419 5.875 10.0033 6.03125 10.0293C6.29167 10.0293 6.59115 9.91211 6.92969 9.67773C9.22135 8.14128 10.3932 7.37305 10.4453 7.37305C10.5495 7.34701 10.6146 7.34701 10.6406 7.37305C10.6667 7.42513 10.6797 7.47721 10.6797 7.5293C10.6536 7.55534 10.5625 7.64648 10.4062 7.80273C10.276 7.95898 10.0938 8.14128 9.85938 8.34961C9.65104 8.55794 9.42969 8.76628 9.19531 8.97461C8.98698 9.18294 8.80469 9.36523 8.64844 9.52148C8.49219 9.65169 8.40104 9.72982 8.375 9.75586C8.21875 9.91211 8.07552 10.0684 7.94531 10.2246C7.8151 10.3548 7.75 10.485 7.75 10.6152C7.77604 10.7454 7.91927 10.9017 8.17969 11.084C8.54427 11.3184 8.85677 11.5267 9.11719 11.709C9.3776 11.8913 9.6901 12.0996 10.0547 12.334C10.2891 12.4902 10.4974 12.6465 10.6797 12.8027C10.888 12.9329 11.1094 12.985 11.3438 12.959C11.474 12.959 11.5911 12.8939 11.6953 12.7637C11.7995 12.6335 11.8776 12.4121 11.9297 12.0996C12.0078 11.735 12.0859 11.2793 12.1641 10.7324C12.2682 10.1855 12.3594 9.62565 12.4375 9.05273C12.5417 8.45378 12.6328 7.89388 12.7109 7.37305C12.7891 6.85221 12.8411 6.43555 12.8672 6.12305Z" fill="currentColor"/>
</svg>
